<svg width="41" height="40" viewBox="0 0 41 40" fill="none" xmlns="http://www.w3.org/2000/svg">
<path d="M32.1667 5H8.83333C6.99238 5 5.5 6.49238 5.5 8.33333V31.6667C5.5 33.5076 6.99238 35 8.83333 35H32.1667C34.0076 35 35.5 33.5076 35.5 31.6667V8.33333C35.5 6.49238 34.0076 5 32.1667 5Z" stroke="white" stroke-width="2" stroke-linecap="round" stroke-linejoin="round"/>
<path d="M35.5 25L27.1667 16.6667L8.83333 35" stroke="white" stroke-width="2" stroke-linecap="round" stroke-linejoin="round"/>
<path d="M14.6667 16.6667C16.0474 16.6667 17.1667 15.5474 17.1667 14.1667C17.1667 12.7859 16.0474 11.6667 14.6667 11.6667C13.286 11.6667 12.1667 12.7859 12.1667 14.1667C12.1667 15.5474 13.286 16.6667 14.6667 16.6667Z" stroke="white" stroke-width="2" stroke-linecap="round" stroke-linejoin="round"/>
</svg>
