<svg width="20" height="20" viewBox="0 0 20 20" fill="none" xmlns="http://www.w3.org/2000/svg">
<circle cx="10" cy="10" r="10" fill="#D9D9D9"/>
<circle cx="10" cy="10" r="10" fill="#C76666"/>
<path d="M6.84014 5.56724C6.67504 5.4134 6.45667 5.32965 6.23104 5.33363C6.00541 5.33761 5.79014 5.42902 5.63057 5.58858C5.471 5.74815 5.3796 5.96343 5.37562 6.18906C5.37164 6.41469 5.45539 6.63305 5.60923 6.79815L8.76779 9.95671L5.60923 13.1153C5.52366 13.195 5.45503 13.2912 5.40743 13.398C5.35983 13.5048 5.33423 13.6201 5.33217 13.7371C5.3301 13.854 5.35161 13.9702 5.39542 14.0786C5.43922 14.1871 5.50442 14.2856 5.58712 14.3683C5.66982 14.451 5.76833 14.5162 5.87678 14.56C5.98522 14.6038 6.10138 14.6253 6.21832 14.6232C6.33526 14.6212 6.45059 14.5956 6.55742 14.548C6.66425 14.5004 6.7604 14.4317 6.84014 14.3462L9.9987 11.1876L13.1573 14.3462C13.237 14.4317 13.3331 14.5004 13.44 14.548C13.5468 14.5956 13.6621 14.6212 13.7791 14.6232C13.896 14.6253 14.0122 14.6038 14.1206 14.56C14.2291 14.5162 14.3276 14.451 14.4103 14.3683C14.493 14.2856 14.5582 14.1871 14.602 14.0786C14.6458 13.9702 14.6673 13.854 14.6652 13.7371C14.6632 13.6201 14.6376 13.5048 14.59 13.398C14.5424 13.2912 14.4737 13.195 14.3882 13.1153L11.2296 9.95671L14.3882 6.79815C14.542 6.63305 14.6258 6.41469 14.6218 6.18906C14.6178 5.96343 14.5264 5.74815 14.3668 5.58858C14.2073 5.42902 13.992 5.33761 13.7664 5.33363C13.5407 5.32965 13.3224 5.4134 13.1573 5.56724L9.9987 8.7258L6.84014 5.56724Z" fill="white"/>
</svg>
