<svg width="36" height="36" viewBox="0 0 36 36" fill="none" xmlns="http://www.w3.org/2000/svg">
<rect x="0.5" y="0.5" width="35" height="35" rx="1.5" stroke="#C78E66"/>
<path d="M24.8479 20.4275C24.5213 20.0355 24.1501 19.6841 23.7912 19.3443C23.6636 19.2235 23.5316 19.0985 23.4044 18.9743C23.0392 18.6172 23.0259 18.4831 23.3151 18.0775C23.5151 17.7979 23.7272 17.518 23.9323 17.2473C24.1184 17.0017 24.3108 16.7477 24.4952 16.4928L24.533 16.4404C24.8855 15.9528 25.25 15.4485 25.4439 14.8402C25.4943 14.6797 25.5472 14.4436 25.4263 14.2461C25.3054 14.0488 25.071 13.9886 24.9051 13.9605C24.8231 13.9465 24.7416 13.9446 24.666 13.9446L22.358 13.943L22.3389 13.9428C21.9899 13.9428 21.7548 14.1073 21.62 14.4456C21.4913 14.7689 21.35 15.1132 21.1887 15.4405C20.8678 16.0923 20.4602 16.8431 19.8704 17.4692L19.8455 17.4958C19.7758 17.5707 19.6969 17.6555 19.6392 17.6555C19.6304 17.6555 19.6208 17.6538 19.6099 17.6503C19.4877 17.6027 19.4057 17.307 19.4094 17.1694C19.4095 17.1675 19.4095 17.1656 19.4095 17.1637L19.4079 14.4961C19.4079 14.4868 19.4072 14.4777 19.4061 14.4685C19.3473 14.0349 19.2173 13.7649 18.7259 13.6687C18.7128 13.6661 18.6995 13.6648 18.6862 13.6648H16.2863C15.8953 13.6648 15.6798 13.8237 15.4773 14.0616C15.4227 14.1252 15.3089 14.2575 15.3653 14.4181C15.4225 14.5811 15.6082 14.6159 15.6687 14.6272C15.969 14.6844 16.1382 14.868 16.1862 15.1889C16.2698 15.7461 16.2801 16.3409 16.2185 17.0607C16.2014 17.2607 16.1674 17.4152 16.1114 17.5472C16.0984 17.578 16.0523 17.6785 16.0052 17.6786C15.9903 17.6786 15.9471 17.6727 15.8683 17.6185C15.6822 17.4909 15.5459 17.3089 15.3871 17.0841C14.8469 16.3207 14.3936 15.4796 14.0009 14.5124C13.8553 14.1563 13.5833 13.9569 13.2348 13.9511C12.8518 13.9453 12.5045 13.9425 12.1734 13.9425C11.8115 13.9425 11.4761 13.9458 11.1485 13.9526C10.868 13.9576 10.6741 14.0416 10.572 14.2027C10.4698 14.3638 10.4764 14.5755 10.5918 14.8317C11.5152 16.8847 12.3525 18.3774 13.3067 19.6718C13.9753 20.5776 14.6459 21.2046 15.4169 21.6447C16.2292 22.1094 17.1395 22.3354 18.1998 22.3354C18.32 22.3354 18.4442 22.3324 18.5696 22.3266C19.1857 22.2966 19.4142 22.0736 19.4431 21.4737C19.4569 21.1671 19.4904 20.8456 19.6411 20.5714C19.7362 20.3987 19.8249 20.3987 19.8541 20.3987C19.9102 20.3987 19.9798 20.4245 20.0546 20.473C20.1887 20.5605 20.3037 20.6777 20.398 20.7802C20.4867 20.8775 20.5744 20.9758 20.6622 21.0741C20.8518 21.2864 21.0477 21.5059 21.2524 21.714C21.7005 22.1699 22.1941 22.3703 22.761 22.3268H24.8771C24.8816 22.3268 24.8861 22.3267 24.8906 22.3264C25.1015 22.3125 25.2841 22.1955 25.3917 22.0055C25.5249 21.7701 25.5222 21.4698 25.3845 21.202C25.2282 20.8992 25.0255 20.6405 24.8479 20.4275Z" fill="#C78E66"/>
</svg>
