<svg width="20" height="20" viewBox="0 0 20 20" fill="none" xmlns="http://www.w3.org/2000/svg">
<circle cx="10" cy="10" r="10" fill="#D9D9D9"/>
<circle cx="10" cy="10" r="10" fill="#66C7A3"/>
<path d="M13.2146 6.90377C13.3759 6.75022 13.5905 6.66533 13.8132 6.66702C14.0358 6.6687 14.2492 6.75683 14.4081 6.9128C14.567 7.06877 14.6592 7.28039 14.6651 7.503C14.6709 7.72561 14.5901 7.9418 14.4396 8.10595L9.87136 13.8192C9.79281 13.9038 9.698 13.9717 9.59261 14.0188C9.48721 14.0659 9.3734 14.0913 9.25796 14.0935C9.14253 14.0956 9.02785 14.0744 8.92079 14.0312C8.81372 13.9881 8.71646 13.9237 8.63483 13.8421L5.60534 10.8126C5.52097 10.734 5.4533 10.6392 5.40637 10.5338C5.35944 10.4285 5.3342 10.3148 5.33216 10.1995C5.33013 10.0842 5.35134 9.96966 5.39453 9.86274C5.43772 9.75582 5.502 9.65869 5.58354 9.57715C5.66508 9.4956 5.76221 9.43132 5.86913 9.38813C5.97606 9.34495 6.09058 9.32374 6.20588 9.32577C6.32118 9.32781 6.43489 9.35304 6.54022 9.39998C6.64555 9.44691 6.74035 9.51458 6.81897 9.59894L9.21646 11.9953L13.1928 6.92896C13.2 6.92014 13.2065 6.91173 13.2146 6.90377Z" fill="white"/>
</svg>
