<svg width="20" height="20" viewBox="0 0 20 20" fill="none" xmlns="http://www.w3.org/2000/svg">
<path d="M15.5417 2.875H4.45833C3.58388 2.875 2.875 3.58388 2.875 4.45833V15.5417C2.875 16.4161 3.58388 17.125 4.45833 17.125H15.5417C16.4161 17.125 17.125 16.4161 17.125 15.5417V4.45833C17.125 3.58388 16.4161 2.875 15.5417 2.875Z" stroke="white" stroke-width="2" stroke-linecap="round" stroke-linejoin="round"/>
<path d="M17.1252 12.375L13.1668 8.41669L4.4585 17.125" stroke="white" stroke-width="2" stroke-linecap="round" stroke-linejoin="round"/>
<path d="M7.229 8.41669C7.88484 8.41669 8.4165 7.88503 8.4165 7.22919C8.4165 6.57335 7.88484 6.04169 7.229 6.04169C6.57317 6.04169 6.0415 6.57335 6.0415 7.22919C6.0415 7.88503 6.57317 8.41669 7.229 8.41669Z" stroke="white" stroke-width="2" stroke-linecap="round" stroke-linejoin="round"/>
</svg>
