<svg width="20" height="21" viewBox="0 0 20 21" fill="none" xmlns="http://www.w3.org/2000/svg">
<path d="M13.7454 3.49152C12.1331 3.49152 10.7554 4.64075 9.99845 5.43305C9.24153 4.64075 7.86691 3.49152 6.25538 3.49152C3.47768 3.49152 1.53845 5.42767 1.53845 8.19921C1.53845 11.2531 3.94691 13.2269 6.27691 15.1361C7.37691 16.0384 8.51538 16.9707 9.38845 18.0046C9.53538 18.1777 9.75076 18.2777 9.97691 18.2777H10.0215C10.2485 18.2777 10.4631 18.1769 10.6092 18.0046C11.4838 16.9707 12.6215 16.0377 13.7223 15.1361C16.0515 13.2277 18.4615 11.2538 18.4615 8.19921C18.4615 5.42767 16.5223 3.49152 13.7454 3.49152Z" fill="#C78E66"/>
</svg>
