<svg width="36" height="36" viewBox="0 0 36 36" fill="none" xmlns="http://www.w3.org/2000/svg">
<rect x="0.5" y="0.5" width="35" height="35" rx="1.5" stroke="#C78E66"/>
<path d="M24.7115 14.6327C24.5502 14.0329 24.0773 13.5601 23.4777 13.3986C22.3821 13.0989 17.9998 13.0989 17.9998 13.0989C17.9998 13.0989 13.6177 13.0989 12.5222 13.3873C11.934 13.5486 11.4496 14.033 11.2883 14.6327C11 15.7281 11 18 11 18C11 18 11 20.2833 11.2883 21.3673C11.4498 21.967 11.9225 22.4398 12.5223 22.6013C13.6293 22.9011 18 22.9011 18 22.9011C18 22.9011 22.3821 22.9011 23.4777 22.6127C24.0774 22.4513 24.5502 21.9785 24.7117 21.3788C24.9999 20.2833 24.9999 18.0115 24.9999 18.0115C24.9999 18.0115 25.0115 15.7281 24.7115 14.6327ZM16.6046 20.0988V15.9012L20.2487 18L16.6046 20.0988Z" fill="#C78E66"/>
</svg>
