<svg width="126" height="14" viewBox="0 0 126 14" fill="none" xmlns="http://www.w3.org/2000/svg">
<g clip-path="url(#clip0_179_1523)">
<path fill-rule="evenodd" clip-rule="evenodd" d="M105.371 14V1.67239e-07H123.007C123.4 -0.000131177 123.789 0.0771033 124.152 0.227294C124.515 0.377484 124.845 0.597689 125.122 0.875337C125.4 1.15298 125.621 1.48264 125.771 1.84547C125.921 2.2083 125.999 2.59722 125.999 2.99V11.01C125.999 12.66 124.659 14 123.007 14H105.371ZM121.076 2.547H108.801V11.453H121.076C121.9 11.453 122.57 10.785 122.57 9.959V4.04C122.57 3.214 121.9 2.547 121.076 2.547Z" fill="#30363A"/>
<path d="M2.967 0.0200195C2.18028 0.0200195 1.42576 0.332476 0.869368 0.88868C0.312976 1.44488 0.000265158 2.1993 0 2.98602L0 10.942C0.000530271 11.7285 0.31339 12.4825 0.869782 13.0384C1.42617 13.5942 2.18054 13.9063 2.967 13.906H20.461V11.38H4.885C4.065 11.38 3.402 10.716 3.402 9.89802V8.12002H19.208V5.59602H3.402V4.02802C3.402 3.20802 4.065 2.54702 4.885 2.54702H20.46V0.0200195H2.967ZM36.595 5.22902L30.03 0.14902H25.58L34.369 6.95102L25.579 13.754H30.031L36.595 8.67402L43.158 13.754H47.61L38.82 6.95002L47.61 0.15002H43.158L36.595 5.22902ZM52.729 2.99702C52.7295 2.21056 53.0424 1.45651 53.5988 0.90068C54.1552 0.344851 54.9095 0.0327542 55.696 0.0330195H73.189V2.55802H57.612C56.792 2.55802 56.129 3.22102 56.129 4.04002V5.60602H71.936V8.13202H56.13V9.91202C56.13 10.728 56.794 11.392 57.613 11.392H73.19V13.919H55.697C54.9105 13.9193 54.1562 13.6072 53.5998 13.0514C53.0434 12.4955 52.7305 11.7415 52.73 10.955L52.729 2.99702ZM82.06 0.0440195C81.6704 0.0437568 81.2846 0.120248 80.9246 0.269123C80.5646 0.417998 80.2374 0.636341 79.9618 0.91168C79.6862 1.18702 79.4675 1.51396 79.3183 1.87383C79.169 2.23369 79.0921 2.61943 79.092 3.00902V10.966C79.0921 11.3556 79.169 11.7413 79.3183 12.1012C79.4675 12.4611 79.6862 12.788 79.9618 13.0634C80.2374 13.3387 80.5646 13.557 80.9246 13.7059C81.2846 13.8548 81.6704 13.9313 82.06 13.931H99.553V11.406H83.977C83.157 11.406 82.493 10.741 82.493 9.92302V8.14502H98.299V5.61702H82.493V4.05302C82.493 3.23302 83.157 2.57002 83.977 2.57002H99.553V0.0440195H82.06Z" fill="#30363A"/>
</g>
<defs>
<clipPath id="clip0_179_1523">
<rect width="126" height="14" fill="white"/>
</clipPath>
</defs>
</svg>
